<svg t="1716193834259" class="icon" viewBox="0 0 1024 1024" version="1.1" xmlns="http://www.w3.org/2000/svg" p-id="5756" width="32" height="32"><path d="M512 51.2v921.6c254.493875 0 460.8-206.306125 460.8-460.8S766.493875 51.2 512 51.2z" fill="#FFB17B" p-id="5757"></path><path d="M917.170221 512c0-254.493875-181.400467-460.8-405.170221-460.8-254.493875 0-460.8 206.306125-460.8 460.8 0 111.883847 90.701264 202.585111 202.585111 202.585111 30.724121 0 55.629779 24.905658 55.629778 55.629778 0 111.883847 90.701264 202.585111 202.585111 202.585111 223.769755 0 405.170221-206.306125 405.170221-460.8z m-663.38511 119.140443c-65.799726 0-119.140443-53.342777-119.140443-119.140443s53.342777-119.140443 119.140443-119.140443S372.925553 446.202334 372.925553 512s-53.342777 119.140443-119.140442 119.140443z" fill="#FFD19C" p-id="5758"></path><path d="M571.004652 131.269795C554.711308 114.976451 533.353594 106.829779 512 106.829779l14.768676 151.95171c14.863453 5.604185 32.271453 2.460072 44.235976-9.50239 32.586688-32.588748 32.586688-85.422616 0-118.009304z" fill="#077CCC" p-id="5759"></path><path d="M531.668217 131.269795c-5.431115-16.293344-12.547606-24.440016-19.668217-24.440016-21.355654 0-42.711308 8.146672-59.004652 24.440016-32.588748 32.588748-32.588748 85.422616 0 118.009304 16.293344 16.293344 42.711308 16.293344 59.004652 0a41.52866 41.52866 0 0 0 14.768676 9.50239c1.784274-2.027396 3.461408-5.187992 4.899541-9.50239 10.862229-32.588748 10.862229-85.422616 0-118.009304z" fill="#09A1E5" p-id="5760"></path><path d="M571.004652 892.730205c-16.293344 16.293344-37.648998 24.440016-59.004652 24.440016l14.768676-151.95171c14.863453-5.604185 32.271453-2.460072 44.235976 9.50239 32.586688 32.588748 32.586688 85.422616 0 118.009304z" fill="#CB2E81" p-id="5761"></path><path d="M531.668217 892.730205c-5.431115 16.293344-12.547606 24.440016-19.668217 24.440016-21.355654 0-42.711308-8.146672-59.004652-24.440016-32.588748-32.588748-32.588748-85.422616 0-118.009304 16.293344-16.293344 42.711308-16.293344 59.004652 0a41.52866 41.52866 0 0 1 14.768676-9.50445c1.784274 2.029457 3.461408 5.190052 4.899541 9.50445 10.862229 32.588748 10.862229 85.422616 0 118.009304z" fill="#FF3187" p-id="5762"></path><path d="M739.494889 822.939557v-166.889336c46.084121 0 83.444668 37.358487 83.444668 83.444668s-37.360547 83.444668-83.444668 83.444668z" fill="#FF7169" p-id="5763"></path><path d="M767.309779 739.494889c0 46.084121-12.454889 83.444668-27.81489 83.444668-46.086181 0-83.444668-37.360547-83.444668-83.444668 0-23.043091 18.677183-41.722334 41.722334-41.722334 0-23.043091 18.677183-41.722334 41.722334-41.722334 15.36 0 27.814889 37.358487 27.81489 83.444668zM892.730205 452.995348C876.436861 436.702004 855.081207 428.555332 833.725553 428.555332v166.889336c21.353594 0 42.711308-8.146672 59.004652-24.440016 32.586688-32.588748 32.586688-85.422616 0-118.009304z" fill="#FF9259" p-id="5764"></path><path d="M861.540443 512c0-46.086181-12.452829-83.444668-27.81489-83.444668-21.355654 0-42.711308 8.146672-59.004652 24.440016s-16.293344 42.711308 0 59.004652c-16.293344 16.293344-16.293344 42.711308 0 59.004652S812.369899 595.444668 833.725553 595.444668c15.36206 0 27.814889-37.358487 27.81489-83.444668z" fill="#FFB24A" p-id="5765"></path><path d="M739.494889 201.060443v166.889336c46.084121 0 83.444668-37.358487 83.444668-83.444668s-37.360547-83.444668-83.444668-83.444668z" fill="#49B296" p-id="5766"></path><path d="M767.309779 284.505111c0-46.084121-12.454889-83.444668-27.81489-83.444668-46.086181 0-83.444668 37.360547-83.444668 83.444668 0 23.043091 18.677183 41.722334 41.722334 41.722334 0 23.043091 18.677183 41.722334 41.722334 41.722334 15.36 0 27.814889-37.358487 27.81489-83.444668z" fill="#89C247" p-id="5767"></path></svg>