<svg t="1715067409468" class="icon" viewBox="0 0 1024 1024" version="1.1" xmlns="http://www.w3.org/2000/svg" p-id="9773" width="20" height="20"><path d="M178.976 28.16h666.048a150.816 150.816 0 0 1 150.816 150.816v439.84c0 208.224-168.8 377.024-377.024 377.024H178.976A150.816 150.816 0 0 1 28.16 845.024V178.976A150.816 150.816 0 0 1 178.976 28.16z" fill="#4E82F4" p-id="9774"></path><path d="M671.616 256c21.216 0 42.4 9.024 54.528 27.104 15.136 18.08 18.144 42.176 3.008 66.24-30.272 84.352-48.448 156.64-48.448 198.784 0 30.144 12.128 69.28 36.352 111.456 12.096 24.096 12.096 51.2-3.04 75.296A64.992 64.992 0 0 1 656.48 768H332.48c-24.224 0-45.44-12.064-57.536-33.12-15.136-21.12-18.176-51.2-6.08-72.32 21.216-42.144 33.344-84.288 33.344-117.44 0-42.144-18.176-111.424-48.448-198.784-3.04-9.024-3.04-15.04-3.04-24.064 0-12.064 6.08-27.104 15.136-39.168C277.984 265.024 299.2 256 320.384 256h351.232z m-445.12 165.632c3.04 0 42.4 54.208 42.4 111.456 0 57.216-39.36 111.424-42.4 111.424-3.008 6.016-9.088 6.016-15.136 6.016-3.04 0-9.088 0-12.096-3.008-9.088-6.016-9.088-18.048-3.04-27.104 0 0 33.28-45.184 33.28-87.36 0-45.12-33.28-87.328-33.28-87.328-6.08-9.024-6.08-21.056 3.04-27.104 9.056-9.024 21.184-6.016 27.232 3.008z m566.24-3.008c9.088 6.048 9.088 18.08 3.04 27.104 0 0-33.28 42.176-33.28 87.36s33.28 87.36 33.28 87.36c6.08 9.024 6.08 21.056-3.04 27.072-3.008 3.008-9.056 3.008-12.096 3.008a23.2 23.2 0 0 1-15.136-6.016c-3.04-3.008-42.4-54.208-42.4-111.424 0-57.248 39.36-111.456 42.4-111.456 6.08-9.024 18.144-9.024 27.232-3.008z m-121.12-123.456H317.344c-9.088 0-15.136 6.016-21.184 12.032-6.08 6.016-6.08 18.08-3.04 24.096a1135.456 1135.456 0 0 1 33.28 108.416c12.16 39.168 18.208 75.296 18.208 105.408 0 15.04 0 30.112-3.04 45.184l72.672-81.312c24.224-27.104 63.584-30.112 93.888-9.056l151.36 114.464a196.736 196.736 0 0 1-12.096-69.28c0-60.224 27.264-150.592 51.488-213.824 3.04-6.016 0-18.08-6.08-24.096-6.016-9.024-12.096-12.032-21.184-12.032z m-99.904 48.16c39.36 0 69.632 33.152 69.632 69.28 0 39.168-30.272 69.28-69.632 69.28-39.36 0-69.664-30.112-69.664-69.28 0-39.136 30.272-69.28 69.664-69.28z m0 42.176c-15.136 0-30.304 15.04-30.304 30.112a30.272 30.272 0 0 0 60.576 0c0-15.04-15.136-30.112-30.272-30.112z" fill="#FFFFFF" p-id="9775"></path></svg>