<svg t="1716533969904" class="icon" viewBox="0 0 1024 1024" version="1.1" xmlns="http://www.w3.org/2000/svg" p-id="3690" width="32" height="32"><path d="M662.4 873.6H169.6c-48 0-86.4-38.4-86.4-86.4V233.6c0-48 38.4-86.4 86.4-86.4h681.6c48 0 86.4 38.4 86.4 86.4v361.6c0 156.8-121.6 278.4-275.2 278.4z" fill="#9076F8" p-id="3691"></path><path d="M745.6 342.4m-64 0a64 64 0 1 0 128 0 64 64 0 1 0-128 0Z" fill="#D6D0F7" p-id="3692"></path><path d="M425.6 342.4L192 681.6h470.4l-236.8-339.2z" fill="#A295EF" p-id="3693"></path><path d="M662.4 470.4l-169.6 214.4H832l-169.6-214.4z" fill="#D6D0F7" p-id="3694"></path><path d="M1017.6 620.8l-60.8-60.8c-9.6-9.6-22.4-9.6-35.2 0l-25.6 28.8 92.8 92.8 28.8-28.8c9.6-6.4 9.6-22.4 0-32z" fill="#FFCCFF" p-id="3695"></path><path d="M585.6 899.2l262.4-262.4 92.8 92.8-262.4 262.4-92.8-92.8z" fill="#FFAA44" p-id="3696"></path><path d="M988.8 684.8l-48 48-92.8-92.8 48-48 92.8 92.8z" fill="#B0BEC5" p-id="3697"></path><path d="M585.6 899.2l-32 124.8 124.8-32-92.8-92.8z" fill="#FFCC66" p-id="3698"></path><path d="M569.6 960l-16 64 64-16-48-48z" fill="#37474F" p-id="3699"></path></svg>