<svg t="1715580899415" class="icon" viewBox="0 0 1024 1024" version="1.1" xmlns="http://www.w3.org/2000/svg" p-id="8276" width="20" height="20"><path d="M268.8 102.4A38.4 38.4 0 0 0 307.2 140.8h384a38.4 38.4 0 0 0 0-76.8H307.2A38.4 38.4 0 0 0 268.8 102.4z" fill="#415FF9" p-id="8277"></path><path d="M121.6 192A70.4 70.4 0 0 1 192 121.6h640a70.4 70.4 0 0 1 70.4 70.4v640a70.4 70.4 0 0 1-70.4 70.4h-640a70.4 70.4 0 0 1-70.4-70.4v-640zM192 134.4A57.6 57.6 0 0 0 134.4 192v640a57.6 57.6 0 0 0 57.6 57.6h640a57.6 57.6 0 0 0 57.6-57.6v-640a57.6 57.6 0 0 0-57.6-57.6h-640z" fill="#CEDAFF" fill-opacity=".6" p-id="8278"></path><path d="M729.6 665.6a12.8 12.8 0 0 0 12.8-12.8v-307.2a12.8 12.8 0 0 0-12.8-12.8h-409.6a12.8 12.8 0 0 0-12.8 12.8v307.2a12.8 12.8 0 0 0 12.8 12.8h409.6z" fill="#415FF9" fill-opacity=".6" p-id="8279"></path><path d="M832 128h-640A64 64 0 0 0 128 192v640A64 64 0 0 0 192 896h640a64 64 0 0 0 64-64v-640A64 64 0 0 0 832 128z" fill="#B1C4FF" fill-opacity=".6" p-id="8280"></path><path d="M284.5184 586.9056a38.2976 38.2976 0 0 0 8.32 41.856l149.3504 149.3248a38.4 38.4 0 1 0 54.2976-54.2976L412.6976 640H704a38.4 38.4 0 0 0 0-76.8h-384a38.272 38.272 0 0 0-35.4816 23.7056zM739.4816 432.8192a38.2976 38.2976 0 0 0-8.32-41.8304l-149.3504-149.3504a38.4 38.4 0 1 0-54.2976 54.3232l83.7888 83.7632H320a38.4 38.4 0 0 0 0 76.8h384a38.272 38.272 0 0 0 35.4816-23.68z" fill="#FFFFFF" p-id="8281"></path></svg>