<svg t="1715253584415" class="icon" viewBox="0 0 1024 1024" version="1.1" xmlns="http://www.w3.org/2000/svg" p-id="54119" width="20" height="20"><path d="M88.4 386.1c13.1 0 23.8-10.4 23.8-23.3V246.4c0-12.8 10.7-23.3 23.7-23.3h118.8c8.7 0.3 16.8-4.1 21.2-11.4 4.4-7.3 4.4-16.4 0-23.8-4.4-7.3-12.6-11.7-21.2-11.4H135.9c-39.3 0-71.2 31.3-71.3 69.9v116.5c0.1 12.8 10.7 23.2 23.8 23.2zM935 637.9c-13.1 0-23.7 10.4-23.7 23.3v116.5c0 6.2-2.5 12.1-7 16.5s-10.5 6.8-16.8 6.8H745c-13.1 0-23.7 10.4-23.7 23.3s10.6 23.3 23.7 23.3h142.5c39.3 0 71.2-31.3 71.3-69.9V661.2c-0.1-12.9-10.7-23.3-23.8-23.3z m-46.9-461.4H745.6c-8.7-0.3-16.8 4.1-21.2 11.4-4.4 7.3-4.4 16.4 0 23.8 4.4 7.3 12.6 11.7 21.2 11.4h142.5c13.1 0 23.7 10.5 23.7 23.3v116.5c0 12.9 10.6 23.3 23.8 23.3 13.1 0 23.8-10.4 23.8-23.3V246.4c-0.1-38.6-32-69.9-71.3-69.9zM255.3 800.9H136.6c-13.1 0-23.7-10.4-23.7-23.3V661.2c0-12.9-10.6-23.3-23.7-23.3s-23.7 10.4-23.7 23.3v116.5c0.1 38.6 31.9 69.8 71.2 69.9h118.8c8.5 0 16.3-4.4 20.6-11.7 4.2-7.2 4.2-16.1 0-23.3-4.5-7.3-12.3-11.7-20.8-11.7zM742 468.3c0-19.3-12.8-25.6-37.1-25.6h-22.8v55.1H705c24.2-0.1 37-10.2 37-29.5z m-592.2-136v360.2c0 38.4 31.7 69.5 70.8 69.5h580.1c39.1 0 70.8-31.1 70.8-69.5V332.3c0-38.4-31.7-69.5-70.8-69.5H220.6c-39.1 0-70.8 31.1-70.8 69.5z m481.3 71.5H709c45.4 0 83 14.9 83 64.4 0 30-14.5 49.3-36.5 59.2l47.4 81.2h-57.1l-39.1-72.2h-24.5v72.2h-51V403.8z m-91.5-3.8c24.3 0.2 47.6 9.8 64.5 26.7l-26.8 31.4c-10.6-9.4-21.7-16-36.8-16-27.4 0-49.9 23.7-49.9 63.6 0 40.7 19.4 64.4 49.3 64.4 16.8 0 30.5-8.2 40.5-18.7l26.8 30.8c-18 20.1-41.7 30.3-69.3 30.3-53.9 0-99.6-35.8-99.6-105.2 0-68.2 47.3-107.3 101.3-107.3z m-221.1 0c57.9 0 97.3 38.3 97.3 105.2 0 67.2-39.3 107.4-97.3 107.4-57.9 0-97.2-40.2-97.2-107.4-0.1-67.2 39.3-105.2 97.2-105.2z m0 170.1c28 0 45.4-25.1 45.4-65 0-39.6-17.4-63-45.4-63-27.9 0-45.1 23.4-45.1 63.1 0 39.9 17.1 64.9 45.1 64.9z" fill="#844F10" p-id="54120"></path></svg>