<svg t="1715237767155" class="icon" viewBox="0 0 1024 1024" version="1.1" xmlns="http://www.w3.org/2000/svg" p-id="20605" width="20" height="20"><path d="M128.2 0H896c70.7 0 128 57.3 128 128v767.9c0 70.7-57.3 128-128 128H128.2c-70.7 0-128-57.3-128-128V128C0.2 57.3 57.5 0 128.2 0z m42.6 738l297.3-204.8-297.3-204.7V738z m66.1-285.8l117.3 81.1-117.3 81.1V452.2z m616.5-123.7L556 533.2V213.3h-87.9v639.9H556v-320L853.4 738V328.5z m-66.2 285.8l-117.3-81.1 117.7-81.1v162.1h-0.4z" fill="#2FADD3" p-id="20606"></path></svg>