<svg xmlns="http://www.w3.org/2000/svg" xmlns:xlink="http://www.w3.org/1999/xlink" width="172" height="36" viewBox="0 0 172 36" fill="none">
<path     fill="#FFFFFF"  d="M0 36L172 36L172 0L0 0L0 36Z">
</path>
<g >
<path     fill="#000000"  d="M44.568 12.976L49.392 12.976L51.48 16.888L54.24 13.432L53.784 12.976L59.304 12.976L53.328 19.648L57.456 26.56L52.848 26.56L50.784 22.408L47.328 26.56L42.72 26.56L48.72 19.648L45.264 13.648L44.568 12.976ZM64.56 26.56L66.168 15.28L61.104 15.28L61.344 12.976L76.08 12.976L75.624 15.28L70.776 15.28L69.168 26.56L64.56 26.56ZM89.64 16.432Q90.336 16.432 90.684 16.996Q91.032 17.56 91.032 18.256L89.88 26.56L79.512 26.56Q78.816 26.56 78.468 26.104Q78.12 25.648 78.12 24.952L79.272 16.432L89.64 16.432ZM83.64 18.736L82.728 24.256L85.488 24.256L86.424 18.736L83.64 18.736ZM104.472 16.432Q105.168 16.432 105.516 16.996Q105.864 17.56 105.864 18.256L104.712 26.56L94.344 26.56Q93.648 26.56 93.3 26.104Q92.952 25.648 92.952 24.952L94.104 16.432L104.472 16.432ZM98.472 18.736L97.56 24.256L100.32 24.256L101.256 18.736L98.472 18.736ZM114.24 11.584L112.392 24.256L114 26.56L109.176 26.56Q108.48 26.56 108.132 26.104Q107.784 25.648 107.784 24.952L109.632 12.28L108.936 11.584L114.24 11.584ZM123.312 24.256L123.528 22.648L116.616 22.648L117.552 16.432L128.592 16.432L128.136 19.408L124.152 19.408L124.224 18.736L121.464 18.736L121.224 20.344L127.92 20.344L127.44 24.952Q127.272 25.648 126.672 26.104Q126.072 26.56 125.376 26.56L116.16 26.56L116.616 23.344L117.312 24.256L123.312 24.256Z">
</path>
</g>
</svg>
