<svg xmlns="http://www.w3.org/2000/svg" xmlns:xlink="http://www.w3.org/1999/xlink" width="200" height="200" viewBox="0 0 200 200" fill="none">
<path     fill="#FFFFFF"  d="M0 200L200 200L200 0L0 0L0 200Z">
</path>
<g >
<path     fill="#000000"  d="M14.136 86.952L23.784 86.952L27.96 94.776L33.48 87.864L32.568 86.952L43.608 86.952L31.656 100.296L39.912 114.12L30.696 114.12L26.568 105.816L19.656 114.12L10.44 114.12L22.44 100.296L15.528 88.296L14.136 86.952ZM54.12 114.12L57.336 91.56L47.208 91.56L47.688 86.952L77.16 86.952L76.248 91.56L66.552 91.56L63.336 114.12L54.12 114.12ZM104.28 93.864Q105.672 93.864 106.368 94.992Q107.064 96.12 107.064 97.512L104.76 114.12L84.024 114.12Q82.632 114.12 81.936 113.208Q81.24 112.296 81.24 110.904L83.544 93.864L104.28 93.864ZM92.28 98.472L90.456 109.512L95.976 109.512L97.848 98.472L92.28 98.472ZM133.944 93.864Q135.336 93.864 136.032 94.992Q136.728 96.12 136.728 97.512L134.424 114.12L113.688 114.12Q112.296 114.12 111.6 113.208Q110.904 112.296 110.904 110.904L113.208 93.864L133.944 93.864ZM121.944 98.472L120.12 109.512L125.64 109.512L127.512 98.472L121.944 98.472ZM153.48 84.168L149.784 109.512L153 114.12L143.352 114.12Q141.96 114.12 141.264 113.208Q140.568 112.296 140.568 110.904L144.264 85.56L142.872 84.168L153.48 84.168ZM171.624 109.512L172.056 106.296L158.232 106.296L160.104 93.864L182.184 93.864L181.272 99.816L173.304 99.816L173.448 98.472L167.928 98.472L167.448 101.688L180.84 101.688L179.88 110.904Q179.544 112.296 178.344 113.208Q177.144 114.12 175.752 114.12L157.32 114.12L158.232 107.688L159.624 109.512L171.624 109.512Z">
</path>
</g>
</svg>
