<svg t="1716192403653" class="icon" viewBox="0 0 1024 1024" version="1.1" xmlns="http://www.w3.org/2000/svg" p-id="3601" width="32" height="32"><path d="M681.642667 464.896h165.205333a31.402667 31.402667 0 0 1 52.736-3.072l6.144-9.386667a397.994667 397.994667 0 1 0-300.885333 446.805334v-4.949334a31.573333 31.573333 0 0 1 2.901333-61.44 76.458667 76.458667 0 0 1 32.768-44.373333 153.6 153.6 0 0 1 20.821333-62.634667 152.234667 152.234667 0 0 1-20.821333-62.464 76.8 76.8 0 0 1-35.669333-64.853333v-56.832a76.8 76.8 0 0 1 76.8-76.8z" fill="#FFC670" p-id="3602"></path><path d="M518.656 159.573333a356.010667 356.010667 0 0 0-358.4 333.141334A352.597333 352.597333 0 0 0 512 864.426667a354.816 354.816 0 0 0 100.522667-14.848 17.066667 17.066667 0 0 0 11.605333-11.946667 62.464 62.464 0 0 1 12.8-23.893333 136.533333 136.533333 0 0 0 0-175.104 59.392 59.392 0 0 1-15.530667-40.106667v-56.832a59.733333 59.733333 0 0 1 59.733334-59.733333h161.792a17.066667 17.066667 0 0 0 17.066666-19.456 350.549333 350.549333 0 0 0-341.333333-302.933334z" fill="#FCFEFF" p-id="3603"></path><path d="M344.6784 385.826133a31.402667 31.402667 0 0 1 43.9808-6.178133l142.301867 107.229867-37.905067 50.295466-142.301867-107.229866a31.402667 31.402667 0 0 1-6.178133-43.9808z" fill="#F6716F" p-id="3604"></path><path d="M512 512m-20.992 0a20.992 20.992 0 1 0 41.984 0 20.992 20.992 0 1 0-41.984 0Z" fill="#3D3D63" p-id="3605"></path><path d="M688.981333 335.018667a31.573333 31.573333 0 0 0-44.544 0L489.813333 489.813333l44.373334 44.373334 154.794666-154.624a31.573333 31.573333 0 0 0 0-44.544z" fill="#F6716F" p-id="3606"></path><path d="M512 512m-63.146667 0a63.146667 63.146667 0 1 0 126.293334 0 63.146667 63.146667 0 1 0-126.293334 0Z" fill="#FFC670" p-id="3607"></path><path d="M698.709333 853.333333h194.389334a17.066667 17.066667 0 0 1 17.066666 17.066667v39.936H681.642667V870.4a17.066667 17.066667 0 0 1 17.066666-17.066667zM681.642667 541.696h228.522666v39.936a17.066667 17.066667 0 0 1-17.066666 17.066667H698.709333a17.066667 17.066667 0 0 1-17.066666-17.066667v-39.936z" fill="#96DDFF" p-id="3608"></path><path d="M716.8 598.528h159.232v47.786667a79.701333 79.701333 0 0 1-79.701333 79.701333A79.701333 79.701333 0 0 1 716.8 646.314667v-47.786667z" fill="#D8E3F0" p-id="3609"></path><path d="M795.989333 725.845333A79.530667 79.530667 0 0 1 716.8 646.314667v-47.786667a79.530667 79.530667 0 0 0 159.061333 0v47.786667a79.530667 79.530667 0 0 1-79.872 79.530666z" fill="#EDF4FF" p-id="3610"></path><path d="M795.989333 725.845333a79.701333 79.701333 0 0 1 79.701334 79.701334V853.333333H716.8v-47.786666a79.701333 79.701333 0 0 1 79.701333-79.701334z" fill="#D8E3F0" p-id="3611"></path><path d="M795.989333 725.845333A79.701333 79.701333 0 0 0 716.8 805.546667V853.333333a79.530667 79.530667 0 0 1 159.061333 0v-47.786666a79.701333 79.701333 0 0 0-79.872-79.701334z" fill="#EDF4FF" p-id="3612"></path><path d="M602.965333 882.176A381.098667 381.098667 0 1 1 512 130.901333a382.976 382.976 0 0 1 376.832 324.266667 17.066667 17.066667 0 0 0 19.456 14.336 17.066667 17.066667 0 0 0 14.336-19.456A415.232 415.232 0 1 0 512 927.232a420.181333 420.181333 0 0 0 99.157333-11.776 17.066667 17.066667 0 0 0 12.458667-20.650667 17.066667 17.066667 0 0 0-20.650667-12.629333z" fill="#3D3D63" p-id="3613"></path><path d="M543.402667 732.330667a17.066667 17.066667 0 1 0 0-34.133334h-62.805334a17.066667 17.066667 0 1 0 0 34.133334z" fill="#3D3D63" p-id="3614"></path><path d="M603.989333 816.810667a317.44 317.44 0 0 1-74.922666 12.8v-24.234667a17.066667 17.066667 0 0 0-34.133334 0v24.064a316.074667 316.074667 0 0 1-126.976-34.133333l12.117334-20.821334a17.066667 17.066667 0 1 0-29.525334-17.066666l-12.117333 20.821333a320.853333 320.853333 0 0 1-92.842667-92.842667l20.821334-12.117333a17.066667 17.066667 0 1 0-17.066667-29.525333l-20.821333 12.117333a316.074667 316.074667 0 0 1-34.133334-126.976h24.064a17.066667 17.066667 0 1 0 0-34.133333h-23.893333a316.074667 316.074667 0 0 1 34.133333-126.976l20.821334 12.117333a17.066667 17.066667 0 1 0 17.066666-29.525333l-20.821333-12.117334a320.853333 320.853333 0 0 1 92.842667-92.842666l12.117333 20.821333a17.066667 17.066667 0 1 0 29.525333-17.066667l-12.117333-20.821333a316.074667 316.074667 0 0 1 126.976-34.133333v24.064a17.066667 17.066667 0 1 0 34.133333 0V194.56a314.88 314.88 0 0 1 126.976 34.133333l-12.117333 20.821334a17.066667 17.066667 0 1 0 29.525333 17.066666l12.117334-20.821333a319.317333 319.317333 0 0 1 93.013333 92.842667l-20.992 12.117333a17.066667 17.066667 0 1 0 17.066667 29.525333l20.992-12.117333a312.832 312.832 0 0 1 29.013333 84.138667 17.066667 17.066667 0 1 0 34.133333-6.314667A352.256 352.256 0 1 0 614.4 849.408a17.066667 17.066667 0 0 0 11.434667-21.162667 17.066667 17.066667 0 0 0-21.845334-11.434666z" fill="#3D3D63" p-id="3615"></path><path d="M512 491.008A20.992 20.992 0 1 0 532.992 512 20.992 20.992 0 0 0 512 491.008z" fill="#3D3D63" p-id="3616"></path><path d="M565.76 571.050667A80.042667 80.042667 0 0 0 592.213333 512a74.410667 74.410667 0 0 0-1.194666-10.581333l110.08-109.909334a48.469333 48.469333 0 1 0-68.266667-68.266666l-109.909333 110.08a74.410667 74.410667 0 0 0-10.922667-1.536 75.605333 75.605333 0 0 0-21.504 3.413333l-91.648-69.12A48.469333 48.469333 0 1 0 341.333333 443.733333l91.477334 68.266667A80.213333 80.213333 0 0 0 512 592.213333a76.117333 76.117333 0 0 0 24.234667-4.266666l78.336 136.533333a17.066667 17.066667 0 0 0 29.525333-17.066667z m90.794667-223.914667a14.336 14.336 0 0 1 20.309333 20.309333l-98.986667 98.986667a82.090667 82.090667 0 0 0-20.309333-20.309333zM440.661333 476.16l-79.530666-59.904a14.336 14.336 0 1 1 17.066666-22.869333l79.530667 59.904a83.968 83.968 0 0 0-17.066667 22.869333zM512 558.08a46.08 46.08 0 1 1 46.08-46.08 46.08 46.08 0 0 1-46.08 46.08z" fill="#3D3D63" p-id="3617"></path><path d="M892.586667 646.314667v-30.72a34.133333 34.133333 0 0 0 34.133333-34.133334v-39.765333a17.066667 17.066667 0 0 0-17.066667-17.066667H681.642667a17.066667 17.066667 0 0 0-17.066667 17.066667v39.765333a34.133333 34.133333 0 0 0 34.133333 34.133334v30.72a96.597333 96.597333 0 0 0 41.984 79.530666A97.109333 97.109333 0 0 0 699.733333 805.546667V836.266667a34.133333 34.133333 0 0 0-34.133333 34.133333v39.765333a17.066667 17.066667 0 0 0 17.066667 17.066667h227.498666a17.066667 17.066667 0 0 0 17.066667-17.066667V870.4a34.133333 34.133333 0 0 0-34.133333-34.133333v-30.72a97.109333 97.109333 0 0 0-41.813334-79.701334 96.426667 96.426667 0 0 0 41.301334-79.530666z m-193.877334-64.853334v-22.698666h194.389334v22.698666zM893.098667 870.4v22.698667H698.709333V870.4z m-34.133334-64.853333V836.266667H733.866667v-30.72a62.634667 62.634667 0 1 1 125.098666 0z m0-159.232a62.634667 62.634667 0 0 1-125.098666 0v-30.72h124.586666z" fill="#3D3D63" p-id="3618"></path></svg>