<svg xmlns="http://www.w3.org/2000/svg" xmlns:xlink="http://www.w3.org/1999/xlink" width="288.4400329589844" height="72.2960205078125" viewBox="0 0 288.4400329589844 72.2960205078125" fill="none">
<g >
<g filter="url(#filter_1_1)">
<path     fill="#383838"  d="M62.32 53.712L50.512 64.296L33.16 44.28L15.808 64.08L4 53.496L22.648 32.112L4 10.584L15.808 7.62939e-06L33.16 20.088L50.512 0.216007L62.32 10.8L43.672 32.184L62.32 53.712ZM100.48 63.72L84.64 63.72L84.64 13.032L67.072 13.032L67.072 1.08001L118.048 1.08001L118.048 13.032L100.48 13.032L100.48 63.72ZM154.768 63.72L124.384 63.72L124.384 37.368L134.896 26.784L165.28 26.784L165.28 53.208L154.768 63.72ZM140.224 38.736L140.224 51.768L149.44 51.768L149.44 38.736L140.224 38.736ZM202.576 63.72L172.192 63.72L172.192 37.368L182.704 26.784L213.088 26.784L213.088 53.208L202.576 63.72ZM188.032 38.736L188.032 51.768L197.248 51.768L197.248 38.736L188.032 38.736ZM236.344 63.72L220.432 63.72L220.432 1.08001L236.344 1.08001L236.344 63.72ZM273.928 63.648L244.12 63.72L244.12 53.496L268.6 53.496L268.6 49.464L243.688 49.464L243.688 37.296L254.2 26.784L284.44 26.784L284.44 37.008L258.664 37.008L258.664 40.68L284.44 40.68L284.44 53.136L273.928 63.648Z">
</path>
</g>
</g>
<defs>
<filter id="filter_1_1" x="0" y="0" width="288.4400329589844" height="72.2960205078125" filterUnits="userSpaceOnUse" color-interpolation-filters="sRGB">
<feFlood flood-opacity="0" result="feFloodId_1_1"/>
<feColorMatrix in="SourceAlpha" type="matrix" values="0 0 0 0 0 0 0 0 0 0 0 0 0 0 0 0 0 0 127 0" result="hardAlpha_1_1"/>
<feOffset dx="0" dy="4"/>
<feGaussianBlur stdDeviation="2"/>
<feComposite in2="hardAlpha_1_1" operator="out"/>
<feColorMatrix type="matrix" values="0 0 0 0 0 0 0 0 0 0 0 0 0 0 0 0 0 0 0.25 0"/>
<feBlend mode="normal" in2="feFloodId_1_1" result="dropShadow_1_1_1"/>
<feBlend mode="normal" in="SourceGraphic" in2="dropShadow_1_1_1" result="shape_1_1"/>
</filter>
</defs>
</svg>
